<svg
  width="256"
  height="256"
  viewBox="0 0 256 256"
  fill="none"
  xmlns="http://www.w3.org/2000/svg"
>
  <!-- Background (transparent) -->
  <rect width="256" height="256" fill="none"/>

  <!-- Django logo -->
  <path
    d="M116.9 24h22.7v158.5c-11.7 2.2-20.3 3-30.2 3-45.1 0-68.7-20.3-68.7-59.1
       0-37.3 24.8-61.5 63.3-61.5 6.6 0 11.7.5 17.9 2.2V24zm0 62.3
       c-4.8-1.6-8.7-2.2-14.1-2.2-21.1 0-33.2 13-33.2 36
       0 22.4 11.5 34.5 32.7 34.5 4.5 0 8.3-.3 14.6-1.4V86.3z"
    fill="#092E20"
  />

  <path
    d="M180.2 67.6v80.8c0 27.9-2.1 41.3-8.5 52.4
       -5.9 10.4-12.2 16.5-27.1 25.2l-21.1-9.9
       c14.9-7.8 21.3-13.2 26.4-22.1
       5.4-9.3 7.2-20 7.2-49.6V67.6h23.1z"
    fill="#092E20"
  />
</svg>
